<?xml version="1.0" standalone="no"?>
<!DOCTYPE svg PUBLIC "-//W3C//DTD SVG 20010904//EN"
 "http://www.w3.org/TR/2001/REC-SVG-20010904/DTD/svg10.dtd">
<svg version="1.0" xmlns="http://www.w3.org/2000/svg"
 width="180.000000pt" height="180.000000pt" viewBox="0 0 180.000000 180.000000"
 preserveAspectRatio="xMidYMid meet">

<g transform="translate(0.000000,180.000000) scale(0.100000,-0.100000)"
fill="#000000" stroke="none">
<path d="M0 1610 c0 -115 4 -190 10 -190 5 0 29 7 52 14 57 20 86 25 198 37
130 13 210 28 243 44 15 7 52 17 82 20 37 5 55 12 55 21 0 8 5 14 10 14 6 0
10 -4 10 -9 0 -5 15 -7 33 -6 17 2 62 3 99 4 44 1 72 6 81 16 13 13 16 13 21
0 6 -16 -3 -47 -15 -55 -10 -7 0 -50 11 -50 4 0 15 16 24 35 9 19 22 35 29 35
8 0 7 3 -2 9 -12 8 -12 11 1 24 11 11 19 12 26 5 11 -11 52 -2 52 13 0 5 7 9
15 9 17 0 19 -9 6 -29 -5 -8 -14 -10 -21 -6 -9 5 -11 4 -6 -3 4 -7 27 -12 51
-12 24 0 47 -5 50 -10 4 -6 11 -7 17 -4 7 4 8 -4 3 -24 -3 -17 -2 -33 4 -36 6
-4 7 -15 1 -30 -4 -12 -9 -54 -10 -92 0 -38 -1 -82 -2 -99 -1 -53 0 -55 32
-48 23 4 29 2 25 -8 -7 -16 -75 -51 -75 -38 0 5 5 9 12 9 8 0 9 3 1 11 -7 7
-29 7 -69 1 -56 -9 -57 -10 -16 -11 23 0 42 -6 42 -12 0 -5 5 -7 10 -4 6 3 10
1 10 -5 0 -7 -8 -9 -21 -5 -18 6 -21 4 -17 -12 5 -20 -20 -44 -52 -50 -8 -1
-85 -2 -170 -2 -85 0 -188 0 -228 -1 -42 -1 -79 4 -87 10 -10 8 -19 8 -34 1
-15 -8 -23 -7 -34 4 -8 8 -25 14 -38 13 -13 0 -31 0 -39 1 -13 1 -13 2 0 11
11 7 1 10 -35 10 -36 0 -46 -3 -35 -10 22 -14 -43 -13 -93 2 -31 9 -42 9 -44
1 -3 -8 -12 -9 -26 -4 -12 4 -50 9 -85 10 l-62 2 0 -129 0 -130 63 4 c40 2 66
9 73 19 6 8 25 15 41 15 17 0 36 7 43 15 7 8 20 15 29 15 14 0 14 -2 1 -10
-18 -11 -13 -16 27 -23 21 -4 35 -1 43 8 7 8 20 15 28 15 12 0 13 -3 4 -12
-23 -23 -12 -31 33 -25 34 5 45 3 45 -7 0 -8 7 -17 16 -20 20 -8 84 3 84 14 0
18 -34 33 -70 32 -48 -2 -51 12 -10 37 16 10 27 21 23 24 -3 4 2 7 13 6 37 -2
59 -14 62 -34 6 -32 22 -45 54 -45 26 0 30 3 25 21 -5 19 -2 20 21 14 48 -11
67 -10 67 3 0 22 -75 44 -101 31 -16 -8 -27 -8 -40 0 -18 10 -17 10 4 11 26 0
30 17 5 23 -10 3 -4 5 14 6 17 0 34 -5 37 -11 4 -10 7 -9 15 2 12 19 81 26 92
9 5 -9 14 -9 36 -1 23 9 131 11 251 3 23 -1 62 -33 62 -51 0 -18 -20 -11 -21
8 0 9 -3 12 -5 5 -3 -6 2 -23 11 -37 16 -24 18 -24 40 -10 28 18 45 11 45 -18
0 -15 -4 -18 -16 -14 -14 5 -15 4 -5 -8 9 -11 9 -15 0 -18 -14 -5 -19 -100 -7
-135 5 -16 3 -25 -9 -32 -14 -7 -15 -12 -5 -24 8 -9 10 -26 6 -41 -4 -17 2
-41 17 -72 21 -44 23 -46 36 -28 10 14 13 34 8 72 -6 49 -5 52 15 52 19 0 21
4 17 28 -9 42 12 152 29 152 8 0 14 -8 14 -17 0 -15 4 -14 19 6 l19 24 11 -21
c7 -13 8 -22 2 -22 -5 0 -8 -24 -7 -55 2 -30 0 -55 -5 -55 -10 0 9 -47 31 -75
14 -18 24 -22 55 -16 6 1 3 6 -5 11 -12 8 -12 10 -1 10 10 0 10 6 -4 26 -9 14
-15 28 -12 30 8 8 41 -51 39 -68 -2 -11 7 -22 22 -30 20 -9 26 -18 26 -45 0
-18 4 -33 8 -33 4 0 8 -9 9 -20 2 -17 -1 -18 -17 -10 -24 13 -73 13 -65 0 4
-6 -7 -10 -27 -9 -26 0 -29 2 -14 8 19 7 19 8 1 15 -10 4 -21 2 -25 -5 -12
-19 -53 0 -47 21 4 16 1 17 -20 9 -13 -5 -40 -9 -59 -9 -19 0 -34 -4 -34 -10
0 -11 -43 -14 -53 -4 -3 4 1 16 9 29 16 24 9 59 -11 51 -7 -2 -44 -14 -81 -26
-121 -37 -302 -24 -387 29 -19 11 -38 17 -43 13 -5 -4 -1 3 10 15 10 12 15 27
11 32 -3 6 1 11 9 11 23 0 29 36 10 72 -18 36 -79 94 -107 102 -26 6 -47 -21
-47 -62 0 -36 0 -36 -16 -14 -10 14 -25 22 -45 22 -33 0 -72 -33 -67 -58 4
-20 45 -29 61 -13 6 6 17 11 24 11 8 0 5 -8 -8 -21 -23 -23 -14 -43 23 -55 19
-6 19 -6 -3 -30 -12 -13 -32 -24 -43 -24 -17 0 -18 2 -6 10 10 7 0 8 -31 4
-40 -6 -48 -4 -53 13 -3 10 -2 33 3 51 10 33 1 49 -21 36 -7 -4 -31 -7 -54 -5
-32 2 -45 -2 -53 -16 -6 -10 -11 -15 -11 -11 0 4 -11 3 -25 -2 -16 -6 -25 -6
-25 0 0 5 -6 7 -13 4 -8 -3 -20 2 -27 11 -7 8 -18 15 -24 15 -6 0 -23 7 -39
14 l-27 15 0 -360 0 -359 900 0 900 0 0 900 0 900 -900 0 -900 0 0 -190z m791
68 c15 10 19 10 19 -1 0 -17 -20 -37 -37 -37 -7 0 -20 15 -29 33 l-17 32 22
-20 c18 -16 25 -17 42 -7z m539 -98 c5 0 10 -7 10 -15 0 -8 5 -15 10 -15 6 0
10 -11 10 -25 0 -14 -4 -25 -10 -25 -5 0 -10 -7 -10 -17 0 -9 -3 -13 -7 -10
-8 9 -33 -41 -30 -61 1 -9 6 -22 10 -29 4 -6 2 -13 -4 -15 -9 -3 -9 -9 -1 -25
9 -16 9 -22 -1 -26 -9 -3 -9 -9 1 -26 8 -14 8 -21 1 -21 -5 0 -7 -4 -4 -10 3
-5 1 -10 -5 -10 -6 0 -13 7 -16 15 -9 22 -21 18 -29 -7 -6 -19 -8 -16 -16 22
-11 53 -6 70 18 71 12 1 10 3 -7 8 -14 4 -24 14 -22 22 2 7 1 28 -3 46 -4 23
-10 30 -20 26 -17 -6 -22 32 -5 42 5 3 6 13 3 21 -5 14 0 15 34 9 31 -5 44 -2
57 11 16 16 16 18 -3 38 -26 27 -26 34 -3 38 9 2 20 -4 24 -14 4 -10 12 -18
18 -18z m-782 -28 c2 -7 -2 -10 -12 -6 -9 3 -16 11 -16 16 0 13 23 5 28 -10z
m862 -22 c0 -5 -5 -10 -11 -10 -5 0 -7 5 -4 10 3 6 8 10 11 10 2 0 4 -4 4 -10z
m-1155 -40 c3 -5 -3 -10 -14 -10 -12 0 -21 5 -21 10 0 6 6 10 14 10 8 0 18 -4
21 -10z m1186 -34 c-6 -7 -9 -15 -6 -18 8 -8 -30 -38 -54 -43 -18 -3 -20 -1
-11 14 5 10 7 21 3 24 -12 13 18 34 48 35 23 1 28 -2 20 -12z m-234 -88 c-3
-7 -5 -2 -5 12 0 14 2 19 5 13 2 -7 2 -19 0 -25z m197 -12 c-3 -9 -10 -13 -16
-10 -5 3 -4 12 3 20 15 18 22 13 13 -10z m-184 -146 c0 -5 -4 -10 -10 -10 -5
0 -10 5 -10 10 0 6 5 10 10 10 6 0 10 -4 10 -10z m-43 -322 c-3 -7 -5 -2 -5
12 0 14 2 19 5 13 2 -7 2 -19 0 -25z m33 -10 c0 -16 -3 -19 -11 -11 -6 6 -8
16 -5 22 11 17 16 13 16 -11z m175 -118 c3 -5 1 -10 -4 -10 -6 0 -11 5 -11 10
0 6 2 10 4 10 3 0 8 -4 11 -10z m-188 -42 c-3 -7 -5 -2 -5 12 0 14 2 19 5 13
2 -7 2 -19 0 -25z m400 16 c-3 -3 -12 -4 -19 -1 -8 3 -5 6 6 6 11 1 17 -2 13
-5z m-193 -19 c4 -13 2 -14 -14 -5 -23 13 -26 20 -6 20 8 0 16 -7 20 -15z m46
-105 c0 -11 -2 -20 -4 -20 -2 0 -6 9 -9 20 -3 11 -1 20 4 20 5 0 9 -9 9 -20z
m-855 -60 c4 -11 23 -29 43 -41 l37 -20 -56 5 c-31 2 -61 1 -68 -4 -19 -11
-51 0 -51 18 0 8 2 13 5 10 3 -3 19 7 35 23 34 34 46 36 55 9z m193 -92 c18
-18 14 -26 -13 -24 -24 1 -33 15 -18 29 9 10 17 9 31 -5z m805 -5 c-7 -2 -19
-2 -25 0 -7 3 -2 5 12 5 14 0 19 -2 13 -5z"/>
<path d="M540 509 c0 -5 5 -7 10 -4 6 3 10 8 10 11 0 2 -4 4 -10 4 -5 0 -10
-5 -10 -11z"/>
<path d="M963 1493 c-7 -3 -13 -12 -13 -21 0 -13 3 -12 15 4 13 17 14 16 4
-14 -9 -25 -14 -30 -20 -20 -6 9 -9 9 -9 1 0 -6 4 -14 8 -17 14 -8 50 5 56 20
11 29 -13 56 -41 47z"/>
<path d="M851 1464 c0 -11 3 -14 6 -6 3 7 2 16 -1 19 -3 4 -6 -2 -5 -13z"/>
<path d="M1021 1319 c-13 -5 -22 -12 -19 -15 3 -3 21 2 39 10 37 16 19 21 -20
5z"/>
<path d="M985 990 c3 -5 8 -10 11 -10 2 0 4 5 4 10 0 6 -5 10 -11 10 -5 0 -7
-4 -4 -10z"/>
<path d="M797 944 c-4 -4 -2 -13 5 -21 6 -7 8 -16 5 -20 -8 -7 21 -63 33 -63
5 0 12 9 15 20 8 24 -3 80 -15 80 -5 0 -15 2 -22 5 -8 3 -17 3 -21 -1z"/>
<path d="M1018 943 c7 -3 16 -2 19 1 4 3 -2 6 -13 5 -11 0 -14 -3 -6 -6z"/>
<path d="M975 930 c-4 -6 -3 -16 3 -22 6 -6 12 -6 17 2 4 6 3 16 -3 22 -6 6
-12 6 -17 -2z"/>
<path d="M207 893 c-15 -2 -25 -8 -23 -12 7 -10 76 -1 76 10 0 9 -4 9 -53 2z"/>
<path d="M710 871 c-33 -8 -52 -21 -67 -48 -11 -19 -9 -25 12 -45 26 -24 33
-48 13 -48 -6 0 -9 -3 -6 -6 4 -3 19 3 35 13 27 17 28 17 13 -1 -15 -18 -14
-19 16 -3 45 23 56 41 52 88 -3 46 -22 60 -68 50z"/>
<path d="M555 860 c-3 -5 -1 -10 4 -10 6 0 11 5 11 10 0 6 -2 10 -4 10 -3 0
-8 -4 -11 -10z"/>
<path d="M1085 860 c-4 -6 -3 -16 3 -22 6 -6 12 -6 17 2 4 6 3 16 -3 22 -6 6
-12 6 -17 -2z"/>
<path d="M255 850 c-12 -19 10 -32 46 -28 48 4 46 32 -3 36 -20 2 -39 -2 -43
-8z"/>
<path d="M110 810 c0 -5 6 -10 14 -10 8 0 18 5 21 10 3 6 -3 10 -14 10 -12 0
-21 -4 -21 -10z"/>
<path d="M851 811 c-11 -7 -9 -11 9 -21 24 -13 48 0 36 19 -9 13 -26 14 -45 2z"/>
<path d="M222 790 c-40 -24 -37 -44 6 -48 37 -4 82 23 82 49 0 26 -45 25 -88
-1z"/>
<path d="M923 753 c9 -2 23 -2 30 0 6 3 -1 5 -18 5 -16 0 -22 -2 -12 -5z"/>
<path d="M1003 730 c20 -11 37 -25 37 -30 0 -6 9 -10 21 -10 39 0 -11 38 -71
54 -17 4 -13 0 13 -14z"/>
<path d="M949 683 c-13 -16 -12 -17 4 -4 9 7 17 15 17 17 0 8 -8 3 -21 -13z"/>
<path d="M959 660 c-25 -18 -103 -35 -94 -20 4 7 -16 20 -31 20 -15 0 25 -40
41 -41 16 0 14 -4 -10 -14 l-30 -14 27 -1 c15 0 30 -5 34 -12 12 -19 -138 -3
-192 21 -56 25 -68 21 -22 -7 90 -56 286 -54 363 2 33 24 11 28 -36 6 -46 -20
-105 -27 -94 -10 3 5 13 6 22 3 11 -4 14 -3 9 5 -4 7 -17 12 -29 12 -28 0 -10
16 28 24 22 5 26 4 15 -4 -13 -9 -13 -11 0 -20 20 -13 27 -12 36 2 5 7 3 8 -7
3 -8 -5 -6 1 5 13 16 18 16 23 4 35 -12 13 -17 12 -39 -3z"/>
<path d="M710 646 c0 -2 7 -7 16 -10 8 -3 12 -2 9 4 -6 10 -25 14 -25 6z"/>
</g>
</svg>
